<svg width="1400" height="820" viewBox="0 0 1400 820" fill="none" xmlns="http://www.w3.org/2000/svg">
  <defs>
    <linearGradient id="bg2" x1="0" y1="0" x2="1400" y2="820" gradientUnits="userSpaceOnUse">
      <stop stop-color="#ECFEFF"/>
      <stop offset="1" stop-color="#F8FAFC"/>
    </linearGradient>
    <marker id="arrow" markerWidth="9" markerHeight="9" refX="8" refY="4.5" orient="auto">
      <path d="M0,0 L9,4.5 L0,9 Z" fill="#0F172A"/>
    </marker>
  </defs>

  <rect width="1400" height="820" rx="20" fill="url(#bg2)"/>
  <text x="52" y="60" fill="#0F172A" font-family="Segoe UI, Arial, sans-serif" font-size="34" font-weight="700">AKS Landing Zone - Architecture Overview</text>
  <text x="52" y="94" fill="#334155" font-family="Segoe UI, Arial, sans-serif" font-size="18" font-weight="500">
    Hub-spoke networking, AKS platform services, and control-plane integrations
  </text>

  <rect x="52" y="134" width="390" height="288" rx="16" fill="#E0F2FE" stroke="#7DD3FC" stroke-width="2"/>
  <text x="78" y="174" fill="#0C4A6E" font-family="Segoe UI, Arial, sans-serif" font-size="25" font-weight="700">Hub VNet</text>
  <text x="328" y="174" fill="#0369A1" font-family="Segoe UI, Arial, sans-serif" font-size="19" font-weight="600">10.0.0.0/16</text>

  <rect x="78" y="198" width="338" height="58" rx="10" fill="#BAE6FD" stroke="#38BDF8"/>
  <text x="100" y="233" fill="#0C4A6E" font-family="Segoe UI, Arial, sans-serif" font-size="18" font-weight="600">snet-management (10.0.0.0/24)</text>
  <rect x="78" y="268" width="338" height="58" rx="10" fill="#BAE6FD" stroke="#38BDF8"/>
  <text x="100" y="303" fill="#0C4A6E" font-family="Segoe UI, Arial, sans-serif" font-size="18" font-weight="600">snet-shared-services (10.0.1.0/24)</text>
  <rect x="78" y="338" width="338" height="58" rx="10" fill="#BAE6FD" stroke="#38BDF8"/>
  <text x="100" y="373" fill="#0C4A6E" font-family="Segoe UI, Arial, sans-serif" font-size="18" font-weight="600">AzureFirewallSubnet (optional)</text>

  <rect x="494" y="134" width="468" height="474" rx="16" fill="#DCFCE7" stroke="#86EFAC" stroke-width="2"/>
  <text x="522" y="174" fill="#14532D" font-family="Segoe UI, Arial, sans-serif" font-size="25" font-weight="700">Spoke VNet (AKS)</text>
  <text x="850" y="174" fill="#15803D" font-family="Segoe UI, Arial, sans-serif" font-size="19" font-weight="600">10.1.0.0/16</text>

  <rect x="522" y="198" width="412" height="58" rx="10" fill="#BBF7D0" stroke="#4ADE80"/>
  <text x="546" y="233" fill="#14532D" font-family="Segoe UI, Arial, sans-serif" font-size="18" font-weight="600">snet-aks-system (10.1.0.0/24)</text>
  <rect x="522" y="268" width="412" height="58" rx="10" fill="#BBF7D0" stroke="#4ADE80"/>
  <text x="546" y="303" fill="#14532D" font-family="Segoe UI, Arial, sans-serif" font-size="18" font-weight="600">snet-aks-user (10.1.1.0/24)</text>
  <rect x="522" y="338" width="412" height="58" rx="10" fill="#BBF7D0" stroke="#4ADE80"/>
  <text x="546" y="373" fill="#14532D" font-family="Segoe UI, Arial, sans-serif" font-size="18" font-weight="600">snet-ingress (10.1.2.0/24)</text>

  <rect x="548" y="438" width="360" height="146" rx="12" fill="#F0FDF4" stroke="#86EFAC"/>
  <text x="572" y="478" fill="#14532D" font-family="Segoe UI, Arial, sans-serif" font-size="21" font-weight="700">AKS Cluster</text>
  <text x="572" y="511" fill="#166534" font-family="Segoe UI, Arial, sans-serif" font-size="17" font-weight="600">- System node pool (B2s autoscale)</text>
  <text x="572" y="538" fill="#166534" font-family="Segoe UI, Arial, sans-serif" font-size="17" font-weight="600">- User node pool (B2s autoscale)</text>
  <text x="572" y="565" fill="#166534" font-family="Segoe UI, Arial, sans-serif" font-size="17" font-weight="600">- OIDC + Workload Identity + Azure RBAC</text>

  <rect x="1008" y="134" width="340" height="474" rx="16" fill="#FEF9C3" stroke="#FACC15" stroke-width="2"/>
  <text x="1034" y="174" fill="#713F12" font-family="Segoe UI, Arial, sans-serif" font-size="25" font-weight="700">Platform Services</text>

  <rect x="1034" y="198" width="286" height="58" rx="10" fill="#FEF08A" stroke="#EAB308"/>
  <text x="1060" y="233" fill="#713F12" font-family="Segoe UI, Arial, sans-serif" font-size="18" font-weight="600">Azure Container Registry</text>
  <rect x="1034" y="268" width="286" height="58" rx="10" fill="#FEF08A" stroke="#EAB308"/>
  <text x="1060" y="303" fill="#713F12" font-family="Segoe UI, Arial, sans-serif" font-size="18" font-weight="600">Log Analytics Workspace</text>
  <rect x="1034" y="338" width="286" height="58" rx="10" fill="#FEF08A" stroke="#EAB308"/>
  <text x="1060" y="373" fill="#713F12" font-family="Segoe UI, Arial, sans-serif" font-size="18" font-weight="600">Key Vault + CSI Provider</text>
  <rect x="1034" y="408" width="286" height="58" rx="10" fill="#FEF08A" stroke="#EAB308"/>
  <text x="1060" y="443" fill="#713F12" font-family="Segoe UI, Arial, sans-serif" font-size="18" font-weight="600">Azure Policy Assignments</text>
  <rect x="1034" y="478" width="286" height="58" rx="10" fill="#FEF08A" stroke="#EAB308"/>
  <text x="1060" y="513" fill="#713F12" font-family="Segoe UI, Arial, sans-serif" font-size="18" font-weight="600">Alerts + Budgets + Grafana*</text>
  <text x="1034" y="561" fill="#92400E" font-family="Segoe UI, Arial, sans-serif" font-size="14" font-weight="500">* optional by environment/toggles</text>

  <ellipse cx="1180" cy="694" rx="160" ry="46" fill="#DBEAFE" stroke="#93C5FD"/>
  <text x="1180" y="700" text-anchor="middle" fill="#1E3A8A" font-family="Segoe UI, Arial, sans-serif" font-size="18" font-weight="700">
    Internet -> Ingress Public IP
  </text>

  <line x1="444" y1="278" x2="494" y2="278" stroke="#0F172A" stroke-width="3" marker-end="url(#arrow)"/>
  <line x1="962" y1="478" x2="1008" y2="478" stroke="#0F172A" stroke-width="3" marker-end="url(#arrow)"/>
  <line x1="1180" y1="650" x2="1180" y2="608" stroke="#0F172A" stroke-width="3" marker-end="url(#arrow)"/>
  <line x1="934" y1="368" x2="1008" y2="368" stroke="#0F172A" stroke-width="3" marker-end="url(#arrow)"/>
  <line x1="934" y1="228" x2="1008" y2="228" stroke="#0F172A" stroke-width="3" marker-end="url(#arrow)"/>

  <rect x="52" y="458" width="390" height="150" rx="16" fill="#F5F3FF" stroke="#C4B5FD" stroke-width="2"/>
  <text x="78" y="500" fill="#4C1D95" font-family="Segoe UI, Arial, sans-serif" font-size="24" font-weight="700">Control Layers</text>
  <text x="78" y="534" fill="#5B21B6" font-family="Segoe UI, Arial, sans-serif" font-size="17" font-weight="600">- Management: diagnostics, alerts, budget</text>
  <text x="78" y="562" fill="#5B21B6" font-family="Segoe UI, Arial, sans-serif" font-size="17" font-weight="600">- Security: baseline policy, KV, Defender opt-in</text>
  <text x="78" y="590" fill="#5B21B6" font-family="Segoe UI, Arial, sans-serif" font-size="17" font-weight="600">- Governance + Identity: policy + federation</text>
</svg>
