<svg width="900" height="220" viewBox="0 0 900 220" xmlns="http://www.w3.org/2000/svg">
  <defs>
    <linearGradient id="bg" x1="0" y1="0" x2="0" y2="1">
      <stop offset="0%" stop-color="#120126"/>
      <stop offset="52%" stop-color="#2a0954"/>
      <stop offset="100%" stop-color="#070111"/>
    </linearGradient>
    <linearGradient id="sun" x1="0" y1="0" x2="0" y2="1">
      <stop offset="0%" stop-color="#ffd29f"/>
      <stop offset="45%" stop-color="#ff4ea8"/>
      <stop offset="100%" stop-color="#a56fff"/>
    </linearGradient>
    <linearGradient id="grid" x1="0" y1="0" x2="0" y2="1">
      <stop offset="0%" stop-color="rgba(57,244,255,0.75)"/>
      <stop offset="100%" stop-color="rgba(57,244,255,0.05)"/>
    </linearGradient>
    <filter id="softGlow" x="-40%" y="-40%" width="180%" height="180%">
      <feGaussianBlur stdDeviation="20"/>
    </filter>
    <clipPath id="sunClip">
      <circle cx="693" cy="64" r="40"/>
    </clipPath>
  </defs>

  <rect width="900" height="220" fill="url(#bg)"/>

  <circle cx="693" cy="64" r="40" fill="url(#sun)" filter="url(#softGlow)" opacity="0.9"/>
  <circle cx="693" cy="64" r="40" fill="url(#sun)"/>
  <g clip-path="url(#sunClip)" stroke="rgba(255,255,255,0.35)" stroke-width="2">
    <line x1="653" y1="46" x2="733" y2="46"/>
    <line x1="653" y1="66" x2="733" y2="66"/>
    <line x1="653" y1="86" x2="733" y2="86"/>
    <line x1="653" y1="106" x2="733" y2="106"/>
  </g>

  <circle cx="144" cy="48" r="42" fill="rgba(255,78,168,0.18)" filter="url(#softGlow)"/>
  <circle cx="792" cy="26" r="33" fill="rgba(57,244,255,0.14)" filter="url(#softGlow)"/>

  <polygon points="0,128 162,82 279,128" fill="rgba(8,8,22,0.7)"/>
  <polygon points="198,128 378,56 522,128" fill="rgba(14,10,36,0.82)"/>
  <polygon points="450,128 648,70 846,128" fill="rgba(8,8,26,0.75)"/>

  <rect x="0" y="128" width="900" height="92" fill="rgba(7,2,20,0.72)"/>

  <g stroke="url(#grid)" stroke-width="1" opacity="0.9">
    <line x1="0" y1="136" x2="900" y2="136"/><line x1="0" y1="154" x2="900" y2="154"/><line x1="0" y1="172" x2="900" y2="172"/><line x1="0" y1="190" x2="900" y2="190"/><line x1="0" y1="208" x2="900" y2="208"/>
    <line x1="0" y1="128" x2="-427" y2="220"/><line x1="64" y1="128" x2="-303" y2="220"/><line x1="129" y1="128" x2="-176" y2="220"/><line x1="193" y1="128" x2="-51" y2="220"/><line x1="257" y1="128" x2="74" y2="220"/><line x1="321" y1="128" x2="198" y2="220"/><line x1="386" y1="128" x2="325" y2="220"/><line x1="450" y1="128" x2="450" y2="220"/><line x1="514" y1="128" x2="575" y2="220"/><line x1="579" y1="128" x2="702" y2="220"/><line x1="643" y1="128" x2="826" y2="220"/><line x1="707" y1="128" x2="951" y2="220"/><line x1="771" y1="128" x2="1076" y2="220"/><line x1="836" y1="128" x2="1203" y2="220"/><line x1="900" y1="128" x2="1328" y2="220"/>
  </g>

  <path d="M 86 208 C 94 168, 84 158, 98 174 L 108 208 Z" fill="rgba(8,8,22,0.92)"/>
  <path d="M 98 168 C 52 146, 44 118, 94 144" stroke="#39f4ff" stroke-width="2" fill="none"/>
  <path d="M 98 168 C 130 146, 146 122, 104 148" stroke="#39f4ff" stroke-width="2" fill="none"/>
  <path d="M 98 168 C 66 160, 58 142, 94 154" stroke="#ff4ea8" stroke-width="2" fill="none"/>

  <path d="M 780 210 C 770 172, 782 152, 766 174 L 756 210 Z" fill="rgba(8,8,22,0.92)"/>
  <path d="M 766 168 C 722 152, 710 120, 762 146" stroke="#39f4ff" stroke-width="2" fill="none"/>
  <path d="M 766 168 C 806 146, 820 124, 772 150" stroke="#39f4ff" stroke-width="2" fill="none"/>
  <path d="M 766 168 C 792 160, 802 144, 772 154" stroke="#ff4ea8" stroke-width="2" fill="none"/>

  <text x="44" y="53" font-family="'Orbitron','Segoe UI',sans-serif" font-size="34" font-weight="700" fill="#f7ddff">Lab Guide</text>
  <text x="46" y="77" font-family="'Space Grotesk','Segoe UI',sans-serif" font-size="16" fill="#d4c0ff">Hands-on AKS workflow: deploy, validate, operate, and tear down</text>

  
      <g transform="translate(46,166)">
        <rect width="118" height="28" rx="14" fill="rgba(57,244,255,0.13)" stroke="rgba(57,244,255,0.55)"/>
        <text x="59" y="19" text-anchor="middle" font-family="'IBM Plex Mono','Consolas',monospace" font-size="11" fill="#c7faff">Hands On</text>
      </g>
      <g transform="translate(176,166)">
        <rect width="126" height="28" rx="14" fill="rgba(57,244,255,0.13)" stroke="rgba(57,244,255,0.55)"/>
        <text x="63" y="19" text-anchor="middle" font-family="'IBM Plex Mono','Consolas',monospace" font-size="11" fill="#c7faff">Infra + App</text>
      </g>
      <g transform="translate(314,166)">
        <rect width="134" height="28" rx="14" fill="rgba(57,244,255,0.13)" stroke="rgba(57,244,255,0.55)"/>
        <text x="67" y="19" text-anchor="middle" font-family="'IBM Plex Mono','Consolas',monospace" font-size="11" fill="#c7faff">Ops Workflow</text>
      </g>

  
    <g transform="translate(573,28)">
      <rect width="297" height="164" rx="14" fill="rgba(7,5,20,0.48)" stroke="rgba(165,111,255,0.52)"/>
      <text x="20" y="30" font-family="'Orbitron','Segoe UI',sans-serif" font-size="12" letter-spacing="2" fill="#f9c8ff">GUIDE FOCUS</text>
        <circle cx="20" cy="51" r="3" fill="#39f4ff"/>
        <text x="31" y="56" font-family="'Space Grotesk','Segoe UI',sans-serif" font-size="13" fill="#f3dcff">prepare environment</text>
        <circle cx="20" cy="75" r="3" fill="#39f4ff"/>
        <text x="31" y="80" font-family="'Space Grotesk','Segoe UI',sans-serif" font-size="13" fill="#f3dcff">deploy landing zones</text>
        <circle cx="20" cy="99" r="3" fill="#39f4ff"/>
        <text x="31" y="104" font-family="'Space Grotesk','Segoe UI',sans-serif" font-size="13" fill="#f3dcff">roll out workloads</text>
        <circle cx="20" cy="123" r="3" fill="#39f4ff"/>
        <text x="31" y="128" font-family="'Space Grotesk','Segoe UI',sans-serif" font-size="13" fill="#f3dcff">run fused module pages</text>
    </g>

  <text x="44" y="204" font-family="'IBM Plex Mono','Consolas',monospace" font-size="11" fill="#b89ed8">Operational learning loop</text>
</svg>