<svg xmlns="http://www.w3.org/2000/svg" viewBox="0 0 900 200">
  <defs>
    <linearGradient id="bg" x1="0%" y1="0%" x2="100%" y2="100%">
      <stop offset="0%" style="stop-color:#8B0000"/>
      <stop offset="100%" style="stop-color:#FF6B35"/>
    </linearGradient>
    <linearGradient id="glow" x1="0%" y1="0%" x2="100%" y2="100%">
      <stop offset="0%" style="stop-color:#FF6B35;stop-opacity:0.2"/>
      <stop offset="100%" style="stop-color:#8B0000;stop-opacity:0"/>
    </linearGradient>
  </defs>
  <rect width="900" height="200" rx="12" fill="url(#bg)"/>
  <circle cx="810" cy="50" r="110" fill="url(#glow)"/>
  <circle cx="90" cy="180" r="80" fill="url(#glow)"/>
  <!-- Grid -->
  <g stroke="rgba(255,255,255,0.06)" stroke-width="1">
    <line x1="0" y1="40" x2="900" y2="40"/><line x1="0" y1="80" x2="900" y2="80"/>
    <line x1="0" y1="120" x2="900" y2="120"/><line x1="0" y1="160" x2="900" y2="160"/>
    <line x1="150" y1="0" x2="150" y2="200"/><line x1="300" y1="0" x2="300" y2="200"/>
    <line x1="450" y1="0" x2="450" y2="200"/><line x1="600" y1="0" x2="600" y2="200"/>
    <line x1="750" y1="0" x2="750" y2="200"/>
  </g>
  <!-- Shield icon -->
  <g transform="translate(60,40)" fill="none" stroke="white" stroke-width="3" stroke-linecap="round" stroke-linejoin="round">
    <path d="M35,10 L60,22 L60,50 C60,70 48,85 35,92 C22,85 10,70 10,50 L10,22 Z"/>
    <polyline points="24,52 32,60 48,44" stroke-width="3"/>
  </g>
  <!-- Text -->
  <text x="140" y="85" font-family="Segoe UI,Arial,sans-serif" font-size="36" font-weight="700" fill="white">Security Guide</text>
  <text x="140" y="115" font-family="Segoe UI,Arial,sans-serif" font-size="16" fill="rgba(255,255,255,0.85)">Network Policies · PSA · Key Vault · Workload Identity</text>
  <!-- Badges -->
  <g transform="translate(140,135)">
    <rect width="120" height="24" rx="12" fill="rgba(255,255,255,0.15)"/>
    <text x="60" y="16" font-family="Segoe UI,Arial,sans-serif" font-size="11" fill="white" text-anchor="middle">Defense in Depth</text>
    <rect x="130" width="80" height="24" rx="12" fill="rgba(255,255,255,0.15)"/>
    <text x="170" y="16" font-family="Segoe UI,Arial,sans-serif" font-size="11" fill="white" text-anchor="middle">Zero Trust</text>
    <rect x="220" width="100" height="24" rx="12" fill="rgba(255,255,255,0.15)"/>
    <text x="270" y="16" font-family="Segoe UI,Arial,sans-serif" font-size="11" fill="white" text-anchor="middle">6 Layers</text>
  </g>
  <!-- Security layers mini panel -->
  <g transform="translate(610,50)">
    <rect width="250" height="100" rx="8" fill="rgba(0,0,0,0.15)"/>
    <text x="125" y="20" font-family="Segoe UI,Arial,sans-serif" font-size="10" fill="rgba(255,255,255,0.6)" text-anchor="middle">SECURITY LAYERS</text>
    <g transform="translate(15,30)" font-family="Segoe UI" font-size="10" fill="rgba(255,255,255,0.8)">
      <circle cx="6" cy="6" r="4" fill="rgba(255,255,255,0.3)"/><text x="16" y="10">Network &amp; NSGs</text>
      <circle cx="126" cy="6" r="4" fill="rgba(255,255,255,0.3)"/><text x="136" y="10">Pod Security</text>
      <circle cx="6" cy="26" r="4" fill="rgba(255,255,255,0.3)"/><text x="16" y="30">Key Vault</text>
      <circle cx="126" cy="26" r="4" fill="rgba(255,255,255,0.3)"/><text x="136" y="30">Azure Policy</text>
      <circle cx="6" cy="46" r="4" fill="rgba(255,255,255,0.3)"/><text x="16" y="50">Defender</text>
      <circle cx="126" cy="46" r="4" fill="rgba(255,255,255,0.3)"/><text x="136" y="50">Identity</text>
    </g>
  </g>
</svg>