<svg xmlns="http://www.w3.org/2000/svg" viewBox="0 0 900 200">
  <defs>
    <linearGradient id="bg" x1="0%" y1="0%" x2="100%" y2="100%">
      <stop offset="0%" style="stop-color:#1E3A5F"/>
      <stop offset="100%" style="stop-color:#0078D4"/>
    </linearGradient>
    <linearGradient id="glow" x1="0%" y1="0%" x2="100%" y2="100%">
      <stop offset="0%" style="stop-color:#50E6FF;stop-opacity:0.2"/>
      <stop offset="100%" style="stop-color:#1E3A5F;stop-opacity:0"/>
    </linearGradient>
  </defs>
  <rect width="900" height="200" rx="12" fill="url(#bg)"/>
  <circle cx="810" cy="45" r="110" fill="url(#glow)"/>
  <circle cx="90" cy="180" r="80" fill="url(#glow)"/>
  <!-- Grid -->
  <g stroke="rgba(255,255,255,0.06)" stroke-width="1">
    <line x1="0" y1="40" x2="900" y2="40"/><line x1="0" y1="80" x2="900" y2="80"/>
    <line x1="0" y1="120" x2="900" y2="120"/><line x1="0" y1="160" x2="900" y2="160"/>
    <line x1="150" y1="0" x2="150" y2="200"/><line x1="300" y1="0" x2="300" y2="200"/>
    <line x1="450" y1="0" x2="450" y2="200"/><line x1="600" y1="0" x2="600" y2="200"/>
    <line x1="750" y1="0" x2="750" y2="200"/>
  </g>
  <!-- Building blocks icon -->
  <g transform="translate(55,42)" fill="none" stroke="white" stroke-width="2.5" stroke-linejoin="round">
    <rect x="5" y="45" width="25" height="25" rx="3" fill="rgba(255,255,255,0.1)"/>
    <rect x="35" y="45" width="25" height="25" rx="3" fill="rgba(255,255,255,0.1)"/>
    <rect x="20" y="20" width="25" height="25" rx="3" fill="rgba(255,255,255,0.1)"/>
    <rect x="50" y="20" width="25" height="25" rx="3" fill="rgba(255,255,255,0.15)"/>
    <rect x="35" y="-5" width="25" height="25" rx="3" fill="rgba(255,255,255,0.1)"/>
  </g>
  <!-- Text -->
  <text x="140" y="85" font-family="Segoe UI,Arial,sans-serif" font-size="36" font-weight="700" fill="white">Architecture Guide</text>
  <text x="140" y="115" font-family="Segoe UI,Arial,sans-serif" font-size="16" fill="rgba(255,255,255,0.85)">Hub-Spoke Topology · Landing Zones · Enterprise Patterns</text>
  <!-- Badges -->
  <g transform="translate(140,135)">
    <rect width="90" height="24" rx="12" fill="rgba(255,255,255,0.15)"/>
    <text x="45" y="16" font-family="Segoe UI,Arial,sans-serif" font-size="11" fill="white" text-anchor="middle">Hub-Spoke</text>
    <rect x="100" width="60" height="24" rx="12" fill="rgba(255,255,255,0.15)"/>
    <text x="130" y="16" font-family="Segoe UI,Arial,sans-serif" font-size="11" fill="white" text-anchor="middle">CAF</text>
    <rect x="170" width="120" height="24" rx="12" fill="rgba(255,255,255,0.15)"/>
    <text x="230" y="16" font-family="Segoe UI,Arial,sans-serif" font-size="11" fill="white" text-anchor="middle">6 Landing Zones</text>
  </g>
  <!-- Architecture mini-diagram -->
  <g transform="translate(620,50)">
    <rect width="240" height="100" rx="8" fill="rgba(0,0,0,0.15)"/>
    <text x="120" y="20" font-family="Segoe UI,Arial,sans-serif" font-size="10" fill="rgba(255,255,255,0.6)" text-anchor="middle">TOPOLOGY</text>
    <g transform="translate(60,35)">
      <rect x="30" width="60" height="22" rx="4" fill="rgba(255,255,255,0.12)"/>
      <text x="60" y="15" font-family="Segoe UI" font-size="9" fill="white" text-anchor="middle">Hub VNet</text>
      <line x1="60" y1="22" x2="60" y2="32" stroke="rgba(255,255,255,0.4)" stroke-width="1.5"/>
      <rect x="0" y="32" width="55" height="22" rx="4" fill="rgba(80,230,255,0.15)"/>
      <text x="28" y="47" font-family="Segoe UI" font-size="9" fill="white" text-anchor="middle">Spoke</text>
      <rect x="65" y="32" width="55" height="22" rx="4" fill="rgba(80,230,255,0.15)"/>
      <text x="93" y="47" font-family="Segoe UI" font-size="9" fill="white" text-anchor="middle">AKS</text>
    </g>
  </g>
</svg>