<svg xmlns="http://www.w3.org/2000/svg" viewBox="0 0 900 200">
  <defs>
    <linearGradient id="bg" x1="0%" y1="0%" x2="100%" y2="100%">
      <stop offset="0%" style="stop-color:#92400E"/>
      <stop offset="100%" style="stop-color:#F59E0B"/>
    </linearGradient>
    <linearGradient id="glow" x1="0%" y1="0%" x2="100%" y2="100%">
      <stop offset="0%" style="stop-color:#F59E0B;stop-opacity:0.25"/>
      <stop offset="100%" style="stop-color:#92400E;stop-opacity:0"/>
    </linearGradient>
  </defs>
  <rect width="900" height="200" rx="12" fill="url(#bg)"/>
  <circle cx="820" cy="35" r="100" fill="url(#glow)"/>
  <circle cx="80" cy="190" r="85" fill="url(#glow)"/>
  <!-- Grid -->
  <g stroke="rgba(255,255,255,0.06)" stroke-width="1">
    <line x1="0" y1="40" x2="900" y2="40"/><line x1="0" y1="80" x2="900" y2="80"/>
    <line x1="0" y1="120" x2="900" y2="120"/><line x1="0" y1="160" x2="900" y2="160"/>
    <line x1="150" y1="0" x2="150" y2="200"/><line x1="300" y1="0" x2="300" y2="200"/>
    <line x1="450" y1="0" x2="450" y2="200"/><line x1="600" y1="0" x2="600" y2="200"/>
    <line x1="750" y1="0" x2="750" y2="200"/>
  </g>
  <!-- Wrench icon -->
  <g transform="translate(58,38)" fill="none" stroke="white" stroke-width="3" stroke-linecap="round" stroke-linejoin="round">
    <path d="M55,25 C55,12 45,5 33,5 C30,5 27,6 25,7 L35,17 L35,28 L24,28 L14,18 C13,20 12,23 12,27 C12,39 22,50 35,50 C37,50 39,49 41,48 L60,67 C62,69 66,69 68,67 L73,62 C75,60 75,56 73,54 L55,36"/>
  </g>
  <!-- Text -->
  <text x="140" y="85" font-family="Segoe UI,Arial,sans-serif" font-size="36" font-weight="700" fill="white">Troubleshooting</text>
  <text x="140" y="115" font-family="Segoe UI,Arial,sans-serif" font-size="16" fill="rgba(255,255,255,0.85)">Common Errors · Terraform · Kubernetes · Azure CLI Fixes</text>
  <!-- Badges -->
  <g transform="translate(140,135)">
    <rect width="90" height="24" rx="12" fill="rgba(255,255,255,0.15)"/>
    <text x="45" y="16" font-family="Segoe UI,Arial,sans-serif" font-size="11" fill="white" text-anchor="middle">Terraform</text>
    <rect x="100" width="100" height="24" rx="12" fill="rgba(255,255,255,0.15)"/>
    <text x="150" y="16" font-family="Segoe UI,Arial,sans-serif" font-size="11" fill="white" text-anchor="middle">Kubernetes</text>
    <rect x="210" width="90" height="24" rx="12" fill="rgba(255,255,255,0.15)"/>
    <text x="255" y="16" font-family="Segoe UI,Arial,sans-serif" font-size="11" fill="white" text-anchor="middle">Azure CLI</text>
  </g>
  <!-- Categories panel -->
  <g transform="translate(630,50)">
    <rect width="230" height="100" rx="8" fill="rgba(0,0,0,0.15)"/>
    <text x="115" y="20" font-family="Segoe UI,Arial,sans-serif" font-size="10" fill="rgba(255,255,255,0.6)" text-anchor="middle">ERROR CATEGORIES</text>
    <g transform="translate(15,32)" font-family="Segoe UI" font-size="11" fill="rgba(255,255,255,0.85)">
      <text x="0" y="0">\u26a0\ufe0f State Lock Errors</text>
      <text x="0" y="20">\ud83d\udce6 Provider Conflicts</text>
      <text x="0" y="40">\ud83d\udd04 Pod CrashLoopBack</text>
      <text x="0" y="60">\ud83c\udf10 DNS Resolution</text>
    </g>
  </g>
</svg>