<svg width="1400" height="480" viewBox="0 0 1400 480" xmlns="http://www.w3.org/2000/svg">
  <defs>
    <linearGradient id="bg" x1="0" y1="0" x2="0" y2="1">
      <stop offset="0%" stop-color="#120126"/>
      <stop offset="52%" stop-color="#2a0954"/>
      <stop offset="100%" stop-color="#070111"/>
    </linearGradient>
    <linearGradient id="sun" x1="0" y1="0" x2="0" y2="1">
      <stop offset="0%" stop-color="#ffd29f"/>
      <stop offset="45%" stop-color="#ff4ea8"/>
      <stop offset="100%" stop-color="#a56fff"/>
    </linearGradient>
    <linearGradient id="grid" x1="0" y1="0" x2="0" y2="1">
      <stop offset="0%" stop-color="rgba(57,244,255,0.75)"/>
      <stop offset="100%" stop-color="rgba(57,244,255,0.05)"/>
    </linearGradient>
    <filter id="softGlow" x="-40%" y="-40%" width="180%" height="180%">
      <feGaussianBlur stdDeviation="20"/>
    </filter>
    <clipPath id="sunClip">
      <circle cx="1078" cy="139" r="86"/>
    </clipPath>
  </defs>

  <rect width="1400" height="480" fill="url(#bg)"/>

  <circle cx="1078" cy="139" r="86" fill="url(#sun)" filter="url(#softGlow)" opacity="0.9"/>
  <circle cx="1078" cy="139" r="86" fill="url(#sun)"/>
  <g clip-path="url(#sunClip)" stroke="rgba(255,255,255,0.35)" stroke-width="2">
    <line x1="992" y1="121" x2="1164" y2="121"/>
    <line x1="992" y1="141" x2="1164" y2="141"/>
    <line x1="992" y1="161" x2="1164" y2="161"/>
    <line x1="992" y1="181" x2="1164" y2="181"/>
  </g>

  <circle cx="224" cy="106" r="91" fill="rgba(255,78,168,0.18)" filter="url(#softGlow)"/>
  <circle cx="1232" cy="58" r="72" fill="rgba(57,244,255,0.14)" filter="url(#softGlow)"/>

  <polygon points="0,278 252,232 434,278" fill="rgba(8,8,22,0.7)"/>
  <polygon points="308,278 588,206 812,278" fill="rgba(14,10,36,0.82)"/>
  <polygon points="700,278 1008,220 1316,278" fill="rgba(8,8,26,0.75)"/>

  <rect x="0" y="278" width="1400" height="202" fill="rgba(7,2,20,0.72)"/>

  <g stroke="url(#grid)" stroke-width="1" opacity="0.9">
    <line x1="0" y1="286" x2="1400" y2="286"/><line x1="0" y1="304" x2="1400" y2="304"/><line x1="0" y1="322" x2="1400" y2="322"/><line x1="0" y1="340" x2="1400" y2="340"/><line x1="0" y1="358" x2="1400" y2="358"/><line x1="0" y1="376" x2="1400" y2="376"/><line x1="0" y1="394" x2="1400" y2="394"/><line x1="0" y1="412" x2="1400" y2="412"/><line x1="0" y1="430" x2="1400" y2="430"/><line x1="0" y1="448" x2="1400" y2="448"/><line x1="0" y1="466" x2="1400" y2="466"/>
    <line x1="0" y1="278" x2="-665" y2="480"/><line x1="100" y1="278" x2="-470" y2="480"/><line x1="200" y1="278" x2="-275" y2="480"/><line x1="300" y1="278" x2="-80" y2="480"/><line x1="400" y1="278" x2="115" y2="480"/><line x1="500" y1="278" x2="310" y2="480"/><line x1="600" y1="278" x2="505" y2="480"/><line x1="700" y1="278" x2="700" y2="480"/><line x1="800" y1="278" x2="895" y2="480"/><line x1="900" y1="278" x2="1090" y2="480"/><line x1="1000" y1="278" x2="1285" y2="480"/><line x1="1100" y1="278" x2="1480" y2="480"/><line x1="1200" y1="278" x2="1675" y2="480"/><line x1="1300" y1="278" x2="1870" y2="480"/><line x1="1400" y1="278" x2="2065" y2="480"/>
  </g>

  <path d="M 86 468 C 94 318, 84 308, 98 324 L 108 468 Z" fill="rgba(8,8,22,0.92)"/>
  <path d="M 98 318 C 52 296, 44 268, 94 294" stroke="#39f4ff" stroke-width="2" fill="none"/>
  <path d="M 98 318 C 130 296, 146 272, 104 298" stroke="#39f4ff" stroke-width="2" fill="none"/>
  <path d="M 98 318 C 66 310, 58 292, 94 304" stroke="#ff4ea8" stroke-width="2" fill="none"/>

  <path d="M 1280 470 C 1270 322, 1282 302, 1266 324 L 1256 470 Z" fill="rgba(8,8,22,0.92)"/>
  <path d="M 1266 318 C 1222 302, 1210 270, 1262 296" stroke="#39f4ff" stroke-width="2" fill="none"/>
  <path d="M 1266 318 C 1306 296, 1320 274, 1272 300" stroke="#39f4ff" stroke-width="2" fill="none"/>
  <path d="M 1266 318 C 1292 310, 1302 294, 1272 304" stroke="#ff4ea8" stroke-width="2" fill="none"/>

  <text x="44" y="115" font-family="'Orbitron','Segoe UI',sans-serif" font-size="56" font-weight="700" fill="#f7ddff">AKS Landing Zone Lab</text>
  <text x="46" y="155" font-family="'Space Grotesk','Segoe UI',sans-serif" font-size="21" fill="#d4c0ff">Terraform landing zones plus a synthwave operations app runbook</text>

  
      <g transform="translate(46,426)">
        <rect width="158" height="28" rx="14" fill="rgba(57,244,255,0.13)" stroke="rgba(57,244,255,0.55)"/>
        <text x="79" y="19" text-anchor="middle" font-family="'IBM Plex Mono','Consolas',monospace" font-size="11" fill="#c7faff">Kubernetes 1.32</text>
      </g>
      <g transform="translate(216,426)">
        <rect width="158" height="28" rx="14" fill="rgba(57,244,255,0.13)" stroke="rgba(57,244,255,0.55)"/>
        <text x="79" y="19" text-anchor="middle" font-family="'IBM Plex Mono','Consolas',monospace" font-size="11" fill="#c7faff">7 Landing Zones</text>
      </g>
      <g transform="translate(386,426)">
        <rect width="182" height="28" rx="14" fill="rgba(57,244,255,0.13)" stroke="rgba(57,244,255,0.55)"/>
        <text x="91" y="19" text-anchor="middle" font-family="'IBM Plex Mono','Consolas',monospace" font-size="11" fill="#c7faff">1000 Runbook Pages</text>
      </g>

  
    <g transform="translate(908,28)">
      <rect width="462" height="424" rx="14" fill="rgba(7,5,20,0.48)" stroke="rgba(165,111,255,0.52)"/>
      <text x="20" y="30" font-family="'Orbitron','Segoe UI',sans-serif" font-size="12" letter-spacing="2" fill="#f9c8ff">CURRENT SNAPSHOT</text>
        <circle cx="20" cy="51" r="3" fill="#39f4ff"/>
        <text x="31" y="56" font-family="'Space Grotesk','Segoe UI',sans-serif" font-size="13" fill="#f3dcff">16 top-level modules</text>
        <circle cx="20" cy="75" r="3" fill="#39f4ff"/>
        <text x="31" y="80" font-family="'Space Grotesk','Segoe UI',sans-serif" font-size="13" fill="#f3dcff">11 nested submodules</text>
        <circle cx="20" cy="99" r="3" fill="#39f4ff"/>
        <text x="31" y="104" font-family="'Space Grotesk','Segoe UI',sans-serif" font-size="13" fill="#f3dcff">50 fused lab modules</text>
        <circle cx="20" cy="123" r="3" fill="#39f4ff"/>
        <text x="31" y="128" font-family="'Space Grotesk','Segoe UI',sans-serif" font-size="13" fill="#f3dcff">Lab profile: Prometheus, Grafana, SQL</text>
        <circle cx="20" cy="147" r="3" fill="#39f4ff"/>
        <text x="31" y="152" font-family="'Space Grotesk','Segoe UI',sans-serif" font-size="13" fill="#f3dcff">Scripts: deploy, build, workloads, destroy</text>
    </g>

  <text x="44" y="464" font-family="'IBM Plex Mono','Consolas',monospace" font-size="11" fill="#b89ed8">Infrastructure and execution runbook in one workflow</text>
</svg>