<svg xmlns="http://www.w3.org/2000/svg" viewBox="0 0 900 200">
  <defs>
    <linearGradient id="bg" x1="0%" y1="0%" x2="100%" y2="100%">
      <stop offset="0%" style="stop-color:#1E3A5F"/>
      <stop offset="100%" style="stop-color:#0078D4"/>
    </linearGradient>
    <linearGradient id="glow" x1="0%" y1="0%" x2="100%" y2="100%">
      <stop offset="0%" style="stop-color:#50E6FF;stop-opacity:0.2"/>
      <stop offset="100%" style="stop-color:#1E3A5F;stop-opacity:0"/>
    </linearGradient>
  </defs>
  <rect width="900" height="200" rx="12" fill="url(#bg)"/>
  <circle cx="820" cy="40" r="110" fill="url(#glow)"/>
  <circle cx="80" cy="180" r="85" fill="url(#glow)"/>
  <g stroke="rgba(255,255,255,0.06)" stroke-width="1">
    <line x1="0" y1="40" x2="900" y2="40"/><line x1="0" y1="80" x2="900" y2="80"/>
    <line x1="0" y1="120" x2="900" y2="120"/><line x1="0" y1="160" x2="900" y2="160"/>
    <line x1="150" y1="0" x2="150" y2="200"/><line x1="300" y1="0" x2="300" y2="200"/>
    <line x1="450" y1="0" x2="450" y2="200"/><line x1="600" y1="0" x2="600" y2="200"/>
    <line x1="750" y1="0" x2="750" y2="200"/>
  </g>
  <!-- Layers icon -->
  <g transform="translate(55,40)" fill="none" stroke="white" stroke-width="2.5">
    <path d="M35,15 L65,30 L35,45 L5,30 Z" fill="rgba(255,255,255,0.05)"/>
    <path d="M35,30 L65,45 L35,60 L5,45 Z" fill="rgba(255,255,255,0.08)"/>
    <path d="M35,45 L65,60 L35,75 L5,60 Z" fill="rgba(255,255,255,0.12)"/>
  </g>
  <text x="140" y="85" font-family="Segoe UI,Arial,sans-serif" font-size="36" font-weight="700" fill="white">Landing Zones</text>
  <text x="140" y="115" font-family="Segoe UI,Arial,sans-serif" font-size="16" fill="rgba(255,255,255,0.85)">7 Domain-Specific Infrastructure Zones · CAF Aligned</text>
  <g transform="translate(140,135)">
    <rect width="90" height="24" rx="12" fill="rgba(255,255,255,0.15)"/>
    <text x="45" y="16" font-family="Segoe UI,Arial,sans-serif" font-size="11" fill="white" text-anchor="middle">Networking</text>
    <rect x="100" width="100" height="24" rx="12" fill="rgba(255,255,255,0.15)"/>
    <text x="150" y="16" font-family="Segoe UI,Arial,sans-serif" font-size="11" fill="white" text-anchor="middle">AKS Platform</text>
    <rect x="210" width="100" height="24" rx="12" fill="rgba(255,255,255,0.15)"/>
    <text x="260" y="16" font-family="Segoe UI,Arial,sans-serif" font-size="11" fill="white" text-anchor="middle">Management</text>
    <rect x="320" width="80" height="24" rx="12" fill="rgba(255,255,255,0.15)"/>
    <text x="360" y="16" font-family="Segoe UI,Arial,sans-serif" font-size="11" fill="white" text-anchor="middle">Security</text>
  </g>
  <!-- Zone flow -->
  <g transform="translate(610,50)">
    <rect width="250" height="100" rx="8" fill="rgba(0,0,0,0.15)"/>
    <text x="125" y="20" font-family="Segoe UI,Arial,sans-serif" font-size="10" fill="rgba(255,255,255,0.6)" text-anchor="middle">DEPLOYMENT ORDER</text>
    <g transform="translate(20,35)" font-family="Segoe UI" font-size="10" fill="white">
      <rect width="60" height="20" rx="3" fill="rgba(80,230,255,0.15)"/>
      <text x="30" y="14" text-anchor="middle">Network</text>
      <text x="68" y="14" fill="rgba(255,255,255,0.4)">\u2192</text>
      <rect x="80" width="40" height="20" rx="3" fill="rgba(80,230,255,0.2)"/>
      <text x="100" y="14" text-anchor="middle">AKS</text>
      <text x="128" y="14" fill="rgba(255,255,255,0.4)">\u2192</text>
      <rect x="140" width="80" height="20" rx="3" fill="rgba(80,230,255,0.25)"/>
      <text x="180" y="14" text-anchor="middle">Mgmt/Sec</text>
    </g>
    <g transform="translate(20,62)" font-family="Segoe UI" font-size="10" fill="white">
      <rect width="100" height="20" rx="3" fill="rgba(80,230,255,0.15)"/>
      <text x="50" y="14" text-anchor="middle">Governance</text>
      <text x="108" y="14" fill="rgba(255,255,255,0.4)">\u2192</text>
      <rect x="120" width="100" height="20" rx="3" fill="rgba(80,230,255,0.2)"/>
      <text x="170" y="14" text-anchor="middle">Identity</text>
    </g>
  </g>
</svg>
