<svg xmlns="http://www.w3.org/2000/svg" viewBox="0 0 900 200">
  <defs>
    <linearGradient id="bg" x1="0%" y1="0%" x2="100%" y2="100%">
      <stop offset="0%" style="stop-color:#475569"/>
      <stop offset="100%" style="stop-color:#94A3B8"/>
    </linearGradient>
    <linearGradient id="glow" x1="0%" y1="0%" x2="100%" y2="100%">
      <stop offset="0%" style="stop-color:#94A3B8;stop-opacity:0.2"/>
      <stop offset="100%" style="stop-color:#475569;stop-opacity:0"/>
    </linearGradient>
  </defs>
  <rect width="900" height="200" rx="12" fill="url(#bg)"/>
  <circle cx="820" cy="40" r="100" fill="url(#glow)"/>
  <circle cx="80" cy="180" r="80" fill="url(#glow)"/>
  <g stroke="rgba(255,255,255,0.06)" stroke-width="1">
    <line x1="0" y1="40" x2="900" y2="40"/><line x1="0" y1="80" x2="900" y2="80"/>
    <line x1="0" y1="120" x2="900" y2="120"/><line x1="0" y1="160" x2="900" y2="160"/>
    <line x1="150" y1="0" x2="150" y2="200"/><line x1="300" y1="0" x2="300" y2="200"/>
    <line x1="450" y1="0" x2="450" y2="200"/><line x1="600" y1="0" x2="600" y2="200"/>
    <line x1="750" y1="0" x2="750" y2="200"/>
  </g>
  <!-- Book/reference icon -->
  <g transform="translate(55,38)" fill="none" stroke="white" stroke-width="2.5" stroke-linecap="round" stroke-linejoin="round">
    <path d="M10,15 C10,15 22,10 35,15 C48,10 60,15 60,15 L60,75 C60,75 48,70 35,75 C22,70 10,75 10,75 Z"/>
    <line x1="35" y1="15" x2="35" y2="75"/>
    <line x1="18" y1="30" x2="30" y2="28" stroke-width="1.5"/>
    <line x1="18" y1="40" x2="30" y2="38" stroke-width="1.5"/>
    <line x1="40" y1="28" x2="52" y2="30" stroke-width="1.5"/>
    <line x1="40" y1="38" x2="52" y2="40" stroke-width="1.5"/>
  </g>
  <text x="140" y="85" font-family="Segoe UI,Arial,sans-serif" font-size="36" font-weight="700" fill="white">Reference</text>
  <text x="140" y="115" font-family="Segoe UI,Arial,sans-serif" font-size="16" fill="rgba(255,255,255,0.85)">Naming · Variables · Outputs · Quick Lookup Tables</text>
  <g transform="translate(140,135)">
    <rect width="120" height="24" rx="12" fill="rgba(255,255,255,0.15)"/>
    <text x="60" y="16" font-family="Segoe UI,Arial,sans-serif" font-size="11" fill="white" text-anchor="middle">Naming Rules</text>
    <rect x="130" width="80" height="24" rx="12" fill="rgba(255,255,255,0.15)"/>
    <text x="170" y="16" font-family="Segoe UI,Arial,sans-serif" font-size="11" fill="white" text-anchor="middle">Variables</text>
    <rect x="220" width="80" height="24" rx="12" fill="rgba(255,255,255,0.15)"/>
    <text x="260" y="16" font-family="Segoe UI,Arial,sans-serif" font-size="11" fill="white" text-anchor="middle">Outputs</text>
  </g>
</svg>