<svg xmlns="http://www.w3.org/2000/svg" viewBox="0 0 900 200">
  <defs>
    <linearGradient id="bg" x1="0%" y1="0%" x2="100%" y2="100%">
      <stop offset="0%" style="stop-color:#7C3AED"/>
      <stop offset="100%" style="stop-color:#A78BFA"/>
    </linearGradient>
    <linearGradient id="glow" x1="0%" y1="0%" x2="100%" y2="100%">
      <stop offset="0%" style="stop-color:#A78BFA;stop-opacity:0.25"/>
      <stop offset="100%" style="stop-color:#7C3AED;stop-opacity:0"/>
    </linearGradient>
  </defs>
  <rect width="900" height="200" rx="12" fill="url(#bg)"/>
  <circle cx="810" cy="45" r="110" fill="url(#glow)"/>
  <circle cx="90" cy="185" r="85" fill="url(#glow)"/>
  <g stroke="rgba(255,255,255,0.06)" stroke-width="1">
    <line x1="0" y1="40" x2="900" y2="40"/><line x1="0" y1="80" x2="900" y2="80"/>
    <line x1="0" y1="120" x2="900" y2="120"/><line x1="0" y1="160" x2="900" y2="160"/>
    <line x1="150" y1="0" x2="150" y2="200"/><line x1="300" y1="0" x2="300" y2="200"/>
    <line x1="450" y1="0" x2="450" y2="200"/><line x1="600" y1="0" x2="600" y2="200"/>
    <line x1="750" y1="0" x2="750" y2="200"/>
  </g>
  <!-- Puzzle pieces icon -->
  <g transform="translate(55,40)" fill="none" stroke="white" stroke-width="2.5" stroke-linejoin="round">
    <rect x="5" y="5" width="25" height="25" rx="3" fill="rgba(255,255,255,0.08)"/>
    <rect x="35" y="5" width="25" height="25" rx="3" fill="rgba(255,255,255,0.12)"/>
    <rect x="5" y="35" width="25" height="25" rx="3" fill="rgba(255,255,255,0.1)"/>
    <rect x="35" y="35" width="25" height="25" rx="3" fill="rgba(255,255,255,0.15)"/>
    <circle cx="30" cy="20" r="5" fill="rgba(255,255,255,0.2)" stroke="none"/>
    <circle cx="20" cy="35" r="5" fill="rgba(255,255,255,0.2)" stroke="none"/>
  </g>
  <text x="140" y="85" font-family="Segoe UI,Arial,sans-serif" font-size="36" font-weight="700" fill="white">Module Index</text>
  <text x="140" y="115" font-family="Segoe UI,Arial,sans-serif" font-size="16" fill="rgba(255,255,255,0.85)">14 Reusable Terraform Modules · Composable · Single Responsibility</text>
  <g transform="translate(140,135)">
    <rect width="90" height="24" rx="12" fill="rgba(255,255,255,0.15)"/>
    <text x="45" y="16" font-family="Segoe UI,Arial,sans-serif" font-size="11" fill="white" text-anchor="middle">14 Modules</text>
    <rect x="100" width="110" height="24" rx="12" fill="rgba(255,255,255,0.15)"/>
    <text x="155" y="16" font-family="Segoe UI,Arial,sans-serif" font-size="11" fill="white" text-anchor="middle">5 Sub-Modules</text>
    <rect x="220" width="100" height="24" rx="12" fill="rgba(255,255,255,0.15)"/>
    <text x="270" y="16" font-family="Segoe UI,Arial,sans-serif" font-size="11" fill="white" text-anchor="middle">azurerm ~>4.0</text>
  </g>
  <!-- Module categories panel -->
  <g transform="translate(620,50)">
    <rect width="240" height="100" rx="8" fill="rgba(0,0,0,0.15)"/>
    <text x="120" y="20" font-family="Segoe UI,Arial,sans-serif" font-size="10" fill="rgba(255,255,255,0.6)" text-anchor="middle">MODULE CATEGORIES</text>
    <g transform="translate(15,32)" font-family="Segoe UI" font-size="11" fill="rgba(255,255,255,0.85)">
      <text x="0" y="0">\ud83c\udf10 Networking (6)</text>
      <text x="120" y="0">\u2601\ufe0f Compute (3)</text>
      <text x="0" y="20">\ud83d\udd12 Security (5)</text>
      <text x="120" y="20">\ud83d\udcca Monitoring (5)</text>
      <text x="0" y="40">\ud83d\udcb0 Cost (1)</text>
      <text x="120" y="40">\ud83c\udff7\ufe0f Naming (1)</text>
    </g>
  </g>
</svg>