<svg width="1920" height="1080" viewBox="0 0 1920 1080" fill="none" xmlns="http://www.w3.org/2000/svg">
  <defs>
    <linearGradient id="bg" x1="960" y1="0" x2="960" y2="1080" gradientUnits="userSpaceOnUse">
      <stop offset="0" stop-color="#13071F"/>
      <stop offset="0.42" stop-color="#0F0522"/>
      <stop offset="1" stop-color="#06010F"/>
    </linearGradient>
    <linearGradient id="horizonGlow" x1="0" y1="530" x2="1920" y2="530" gradientUnits="userSpaceOnUse">
      <stop offset="0" stop-color="#FF4EA8" stop-opacity="0"/>
      <stop offset="0.5" stop-color="#FF4EA8" stop-opacity="0.8"/>
      <stop offset="1" stop-color="#FF4EA8" stop-opacity="0"/>
    </linearGradient>
    <linearGradient id="lineColor" x1="960" y1="530" x2="960" y2="1080" gradientUnits="userSpaceOnUse">
      <stop offset="0" stop-color="#39F4FF" stop-opacity="0.96"/>
      <stop offset="1" stop-color="#A068FF" stop-opacity="0.22"/>
    </linearGradient>
    <radialGradient id="topGlow" cx="0" cy="0" r="1" gradientUnits="userSpaceOnUse" gradientTransform="translate(960 120) rotate(90) scale(460 960)">
      <stop stop-color="#FF73C6" stop-opacity="0.34"/>
      <stop offset="1" stop-color="#FF73C6" stop-opacity="0"/>
    </radialGradient>
  </defs>

  <rect width="1920" height="1080" fill="url(#bg)"/>
  <rect width="1920" height="1080" fill="url(#topGlow)"/>

  <line x1="0" y1="530" x2="1920" y2="530" stroke="url(#horizonGlow)" stroke-width="3"/>

  <g opacity="0.88" stroke="url(#lineColor)" stroke-width="1.5">
    <line x1="120" y1="1080" x2="960" y2="530"/>
    <line x1="240" y1="1080" x2="960" y2="530"/>
    <line x1="360" y1="1080" x2="960" y2="530"/>
    <line x1="480" y1="1080" x2="960" y2="530"/>
    <line x1="600" y1="1080" x2="960" y2="530"/>
    <line x1="720" y1="1080" x2="960" y2="530"/>
    <line x1="840" y1="1080" x2="960" y2="530"/>
    <line x1="1080" y1="1080" x2="960" y2="530"/>
    <line x1="1200" y1="1080" x2="960" y2="530"/>
    <line x1="1320" y1="1080" x2="960" y2="530"/>
    <line x1="1440" y1="1080" x2="960" y2="530"/>
    <line x1="1560" y1="1080" x2="960" y2="530"/>
    <line x1="1680" y1="1080" x2="960" y2="530"/>
    <line x1="1800" y1="1080" x2="960" y2="530"/>
  </g>

  <g opacity="0.92" stroke="url(#lineColor)" stroke-width="1.25">
    <path d="M0 1080H1920"/>
    <path d="M0 1010H1920"/>
    <path d="M0 940H1920"/>
    <path d="M0 880H1920"/>
    <path d="M0 830H1920"/>
    <path d="M0 790H1920"/>
    <path d="M0 755H1920"/>
    <path d="M0 725H1920"/>
    <path d="M0 698H1920"/>
    <path d="M0 674H1920"/>
    <path d="M0 653H1920"/>
    <path d="M0 635H1920"/>
    <path d="M0 618H1920"/>
    <path d="M0 603H1920"/>
    <path d="M0 590H1920"/>
    <path d="M0 578H1920"/>
    <path d="M0 567H1920"/>
    <path d="M0 557H1920"/>
    <path d="M0 548H1920"/>
    <path d="M0 540H1920"/>
  </g>

  <g fill="#A6F7FF" opacity="0.6">
    <circle cx="245" cy="118" r="1.6"/>
    <circle cx="412" cy="88" r="1.2"/>
    <circle cx="688" cy="72" r="1.4"/>
    <circle cx="935" cy="58" r="1.1"/>
    <circle cx="1160" cy="93" r="1.5"/>
    <circle cx="1342" cy="124" r="1.2"/>
    <circle cx="1601" cy="86" r="1.3"/>
    <circle cx="1764" cy="139" r="1.1"/>
  </g>
</svg>
